<?xml version="1.0" encoding="UTF-8"?>
<svg id="Capa_2" xmlns="http://www.w3.org/2000/svg" viewBox="0 0 100.72 100.72">
  <defs>
    <style>
      .cls-1 {
        fill: #048937;
      }
    </style>
  </defs>
  <g id="Capa_1-2" data-name="Capa_1">
    <g>
      <polygon class="cls-1" points="63.19 11.85 63.19 11.85 37.52 11.85 25.23 53.32 15.8 53.32 15.8 65.17 33.57 65.18 33.57 65.17 45.86 23.7 54.86 23.71 67.15 65.17 67.15 65.16 67.15 65.16 67.15 65.17 84.92 65.17 84.92 53.32 75.48 53.32 63.19 11.85"/>
      <polygon class="cls-1" points="44.43 71.1 56.29 71.1 56.29 53.32 44.44 53.32 44.43 71.1"/>
      <polygon class="cls-1" points="43.78 77.08 41.48 77.08 44.55 87.43 44.55 87.43 44.55 87.43 44.55 87.43 46.85 87.43 46.85 87.43 48 87.43 48 85.13 46.17 85.13 43.78 77.08"/>
      <polygon class="cls-1" points="51.45 77.08 48 77.08 48 79.37 50.3 79.38 50.3 87.43 52.61 87.43 52.61 79.38 54.91 79.38 54.91 77.08 51.45 77.08"/>
      <polygon class="cls-1" points="31.87 77.08 29.48 85.13 27.65 85.13 27.65 87.43 28.8 87.43 28.8 87.43 29.95 87.43 31.1 87.43 31.1 87.43 34.17 77.08 31.87 77.08"/>
      <polygon class="cls-1" points="56.47 77.08 56.47 79.37 56.47 85.13 56.47 87.43 58.75 87.43 58.75 87.43 59.54 87.43 59.54 85.13 58.76 85.13 58.77 79.38 59.54 79.38 59.54 77.08 58.77 77.08 56.47 77.08"/>
      <polygon class="cls-1" points="65.39 85.13 65.38 85.13 63 77.08 63 77.08 60.31 77.08 60.31 79.37 61.37 79.37 63.08 85.13 60.31 85.13 60.31 87.43 63.76 87.43 63.76 87.43 66.06 87.43 65.39 85.19 65.39 85.13"/>
      <polygon class="cls-1" points="38.86 77.08 38.86 77.08 36.55 77.08 33.48 87.43 35.79 87.43 37.7 80.96 39.62 87.43 41.93 87.43 38.86 77.08"/>
      <polygon class="cls-1" points="68.85 77.08 68.85 77.08 65.4 77.08 65.4 77.08 65.4 77.08 66.08 79.37 67.23 79.37 69.62 87.43 69.62 87.43 69.62 87.43 69.62 87.43 71.91 87.43 71.91 87.43 73.06 87.43 73.06 85.13 71.23 85.13 68.85 77.08"/>
      <path class="cls-1" d="M50.36,0C22.55,0,0,22.55,0,50.36s22.55,50.36,50.36,50.36,50.36-22.55,50.36-50.36S78.17,0,50.36,0ZM69.27,95.12c-15.12,6.4-32.46,4.72-46.07-4.48-7.81-5.27-13.93-12.7-17.6-21.38C-.8,54.15.88,36.81,10.08,23.2c5.27-7.81,12.7-13.93,21.38-17.6,5.98-2.54,12.41-3.84,18.91-3.82,9.68-.01,19.14,2.87,27.16,8.29,7.81,5.27,13.93,12.7,17.6,21.38,6.4,15.12,4.72,32.46-4.48,46.07-5.27,7.82-12.7,13.93-21.37,17.61Z"/>
    </g>
  </g>
</svg>