<?xml version="1.0" encoding="UTF-8"?>
<svg id="Capa_2" data-name="Capa 2" xmlns="http://www.w3.org/2000/svg" viewBox="0 0 400 400">
  <defs>
    <style>
      .cls-1 {
        fill: #048937;
      }
    </style>
  </defs>
  <g id="ini">
    <path class="cls-1" d="M200,10c25.65,0,50.54,5.02,73.95,14.93,22.62,9.57,42.94,23.27,60.4,40.72,17.45,17.45,31.15,37.77,40.72,60.4,9.9,23.42,14.93,48.3,14.93,73.95s-5.02,50.54-14.93,73.95c-9.57,22.62-23.27,42.94-40.72,60.4-17.45,17.45-37.77,31.15-60.4,40.72-23.42,9.9-48.3,14.93-73.95,14.93s-50.54-5.02-73.95-14.93c-22.62-9.57-42.94-23.27-60.4-40.72-17.45-17.45-31.15-37.77-40.72-60.4-9.9-23.42-14.93-48.3-14.93-73.95s5.02-50.54,14.93-73.95c9.57-22.62,23.27-42.94,40.72-60.4,17.45-17.45,37.77-31.15,60.4-40.72,23.42-9.91,48.3-14.93,73.95-14.93M200,0C89.54,0,0,89.54,0,200s89.54,200,200,200,200-89.54,200-200S310.46,0,200,0h0Z"/>
  </g>
  <g id="LOGO_editable" data-name="LOGO editable">
    <g>
      <polygon class="cls-1" points="118.25 323.76 113.73 323.76 113.73 333.32 125.34 333.32 135.59 293.7 126.03 293.7 118.25 323.76"/>
      <polygon class="cls-1" points="148.24 293.7 137.99 333.32 147.55 333.32 155.37 303.11 163.18 333.32 172.74 333.32 162.5 293.7 148.24 293.7"/>
      <polygon class="cls-1" points="184.71 293.7 175.14 293.7 185.39 333.32 197 333.32 197 323.76 192.48 323.76 184.71 293.7"/>
      <polygon class="cls-1" points="199.4 293.7 199.4 303.26 206.23 303.26 206.23 333.32 215.8 333.32 215.8 303.26 222.63 303.26 222.63 293.7 199.4 293.7"/>
      <polygon class="cls-1" points="249.72 293.7 238.11 293.7 238.11 303.26 242.63 303.26 247.93 323.76 238.11 323.76 238.11 333.32 259.97 333.32 249.72 293.7"/>
      <polygon class="cls-1" points="225.03 293.7 225.03 333.32 236.64 333.32 236.64 323.76 234.59 323.76 234.59 303.26 236.64 303.26 236.64 293.7 225.03 293.7"/>
      <polygon class="cls-1" points="286.27 323.76 281.75 323.76 273.98 293.72 262.37 293.7 262.37 303.26 266.88 303.26 274.66 333.32 286.27 333.32 286.27 323.76"/>
    </g>
    <g>
      <polygon class="cls-1" points="308.2 210.43 286.4 210.43 248.94 65.59 153.48 65.59 116.02 210.43 94.22 210.43 94.22 256.52 150.18 256.52 187.64 111.67 214.78 111.67 252.24 256.52 308.2 256.52 308.2 210.43"/>
      <rect class="cls-1" x="178.17" y="210.43" width="46.09" height="62.55"/>
    </g>
  </g>
</svg>